<?xml version="1.0" encoding="UTF-8"?>
<svg width="157px" height="45px" viewBox="0 0 157 45" version="1.1" xmlns="http://www.w3.org/2000/svg" xmlns:xlink="http://www.w3.org/1999/xlink">
    <title>Group 26</title>
    <g id="Symbols" stroke="none" stroke-width="1" fill="none" fill-rule="evenodd">
        <g id="nav" transform="translate(-168.000000, -18.000000)">
            <g id="Group-26" transform="translate(168.000000, 18.000000)">
                <path d="M7.04347826,41.0216739 L11.4782609,41.0216739 C11.673913,41.0216739 11.8043478,41.0868913 11.8695652,41.2825435 L13.5,43.8912391 C13.6304348,44.1521087 13.5652174,44.4129783 13.3695652,44.6086304 C13.3043478,44.6738478 13.173913,44.6738478 13.1086957,44.6738478 L0.52173913,44.6738478 C0.260869565,44.6738478 0,44.4781957 0,44.1521087 L0,41.9347174 C0,41.8042826 0.0652173913,41.6738478 0.130434783,41.6086304 L6.58695652,34.1738478 C6.7826087,33.9781957 6.7173913,33.6521087 6.52173913,33.4564565 C6.45652174,33.3912391 6.32608696,33.3260217 6.19565217,33.3260217 L0.782608696,33.3260217 C0.52173913,33.3260217 0.260869565,33.1303696 0.260869565,32.8042826 L0.260869565,30.195587 C0.260869565,29.9347174 0.456521739,29.6738478 0.782608696,29.6738478 L12.7826087,29.6738478 C13.0434783,29.6738478 13.3043478,29.8695 13.3043478,30.195587 L13.3043478,32.3477609 C13.3043478,32.4781957 13.2391304,32.6086304 13.173913,32.6738478 L6.7173913,40.1086304 C6.52173913,40.3042826 6.58695652,40.6303696 6.7826087,40.8260217 C6.84782609,40.9564565 6.91304348,41.0216739 7.04347826,41.0216739" id="Fill-1" fill="#171E25"></path>
                <path d="M23.6086304,35.8695 C23.8695,35.8695 24.1303696,35.6738478 24.1303696,35.3477609 L24.1303696,35.2825435 C23.9999348,33.8477609 22.7608043,32.8042826 21.3260217,32.8695 C19.8912391,32.8695 18.7173261,33.8477609 18.3912391,35.2173261 C18.3260217,35.4781957 18.4564565,35.7390652 18.7173261,35.8695 L18.8477609,35.8695 L23.6086304,35.8695 Z M28.2390652,38.4781957 L18.9781957,38.4781957 C18.7173261,38.4781957 18.4564565,38.6738478 18.4564565,38.9347174 C18.4564565,38.9999348 18.4564565,39.0651522 18.5216739,39.1303696 C19.043413,40.4347174 20.3477609,41.2825435 21.7825435,41.2173261 C22.9564565,41.2173261 24.0651522,40.7608043 24.9781957,40.043413 C25.1738478,39.8477609 25.4347174,39.8477609 25.6303696,40.043413 L27.4564565,41.8695 C27.6521087,42.0651522 27.6521087,42.3912391 27.4564565,42.5868913 C25.7608043,44.0868913 23.6086304,44.9347174 21.3260217,44.8695 C17.0216739,44.8695 14.1521087,42.4564565 13.5651522,38.7390652 C12.6521087,32.9347174 17.0216739,28.9564565 22.7608043,29.8042826 C26.8042826,30.4564565 28.8260217,33.5216739 28.695587,38.0868913 C28.695587,38.2173261 28.4999348,38.4129783 28.2390652,38.4781957 L28.2390652,38.4781957 Z" id="Fill-3" fill="#171E25"></path>
                <path d="M35.5436087,31.5651522 C36.3914348,30.5216739 37.5653478,29.8042826 38.8696957,29.543413 C39.1305652,29.4781957 39.3914348,29.6738478 39.4566522,29.9999348 L39.4566522,30.0651522 L39.4566522,33.2608043 C39.4566522,33.5216739 39.261,33.7825435 38.934913,33.7825435 C36.4566522,33.7173261 34.8914348,35.0216739 34.6305652,36.9781957 L34.6305652,44.0868913 C34.6305652,44.3477609 34.434913,44.6086304 34.1088261,44.6086304 L30.3262174,44.6086304 C30.0653478,44.6086304 29.8044783,44.4129783 29.8044783,44.0868913 L29.8044783,30.2608043 C29.8044783,29.9999348 30.0001304,29.7390652 30.3262174,29.7390652 L34.1088261,29.7390652 C34.3696957,29.7390652 34.6305652,29.9347174 34.6305652,30.2608043 L34.6305652,31.3042826 C34.6305652,31.5651522 34.8914348,31.8260217 35.1523043,31.8260217 C35.3479565,31.7608043 35.4783913,31.695587 35.5436087,31.5651522" id="Fill-5" fill="#171E25"></path>
                <path d="M43.8260217,37.2391304 C43.8260217,39.5217391 45.195587,41.0869565 47.1521087,41.0869565 C49.1086304,41.0869565 50.4781957,39.5217391 50.4781957,37.2391304 C50.4781957,34.9565217 49.1086304,33.3913043 47.1521087,33.3913043 C45.195587,33.3913043 43.8260217,34.8913043 43.8260217,37.2391304 M55.3042826,37.173913 C55.3042826,41.7391304 52.043413,44.7391304 47.2173261,44.7391304 C42.3912391,44.7391304 39.0651522,41.7391304 39.0651522,37.173913 C39.0651522,32.6086957 42.3260217,29.6086957 47.2173261,29.6086957 C52.1086304,29.6086957 55.3042826,32.6086957 55.3042826,37.173913" id="Fill-7" fill="#171E25"></path>
                <path d="M73.0436087,37.0436087 C73.0436087,34.761 71.6740435,33.1957826 69.7175217,33.1957826 C67.761,33.1957826 66.4566522,34.8262174 66.4566522,37.0436087 C66.4566522,39.261 67.8262174,40.9566522 69.7175217,40.9566522 C71.6088261,40.9566522 73.0436087,39.3262174 73.0436087,37.0436087 M77.8696957,37.1740435 C77.8696957,41.6740435 75.1957826,44.6740435 71.0218696,44.6740435 C69.6523043,44.6740435 68.3479565,44.2175217 67.3044783,43.3696957 C67.1088261,43.1740435 66.7827391,43.2392609 66.587087,43.434913 C66.5218696,43.5001304 66.4566522,43.6305652 66.4566522,43.761 L66.4566522,44.0218696 C66.4566522,44.2827391 66.261,44.5436087 65.934913,44.5436087 L62.1523043,44.5436087 C61.8914348,44.5436087 61.6305652,44.3479565 61.6305652,44.0218696 L61.6305652,24.587087 C61.6305652,24.3262174 61.8262174,24.0653478 62.1523043,24.0653478 L65.934913,24.0653478 C66.1957826,24.0653478 66.4566522,24.261 66.4566522,24.587087 L66.4566522,30.3914348 C66.4566522,30.6523043 66.6523043,30.9131739 66.9783913,30.9131739 C67.1088261,30.9131739 67.2392609,30.8479565 67.3044783,30.7827391 C68.3479565,29.934913 69.587087,29.4783913 70.8914348,29.4783913 C75.0653478,29.4783913 77.8696957,32.5436087 77.8696957,37.1740435" id="Fill-9" fill="#171E25"></path>
                <path d="M82.5001304,37.2391304 C82.5001304,39.5217391 83.8696957,41.0869565 85.8262174,41.0869565 C87.7827391,41.0869565 89.1523043,39.5217391 89.1523043,37.2391304 C89.1523043,34.9565217 87.7827391,33.3913043 85.8262174,33.3913043 C83.8696957,33.3913043 82.5001304,34.8913043 82.5001304,37.2391304 M93.9131739,37.173913 C93.9131739,41.7391304 90.6523043,44.7391304 85.8262174,44.7391304 C81.1957826,44.7391304 77.6740435,41.4782609 77.6740435,37.173913 C77.6740435,32.6086957 80.934913,29.6086957 85.8262174,29.6086957 C90.7175217,29.6086957 93.9131739,32.6086957 93.9131739,37.173913" id="Fill-11" fill="#171E25"></path>
                <path d="M109.434783,41.2174565 L105.652174,43.956587 C105.456522,44.0870217 105.130435,44.0870217 104.934783,43.8261522 C104.869565,43.7609348 104.869565,43.6305 104.869565,43.5652826 C104.869565,43.304413 104.608696,43.0435435 104.347826,43.0435435 C104.217391,43.0435435 104.086957,43.1087609 103.956522,43.1739783 C102.913043,44.2174565 101.478261,44.7391957 99.9782609,44.6739783 C96.7826087,44.6739783 94.6956522,42.456587 94.6956522,39.0000652 L94.6956522,30.1305 C94.6956522,29.8696304 94.8913043,29.6087609 95.1521739,29.6087609 L98.9347826,29.6087609 C99.1956522,29.6087609 99.4565217,29.804413 99.4565217,30.1305 L99.4565217,37.6305 C99.4565217,39.3913696 100.434783,40.4348478 101.934783,40.4348478 C103.76087,40.4348478 104.804348,38.9348478 104.804348,36.9131087 L104.804348,30.1305 C104.804348,29.8696304 105,29.6087609 105.26087,29.6087609 L109.043478,29.6087609 C109.304348,29.6087609 109.565217,29.804413 109.565217,30.1305 L109.565217,40.7609348 C109.630435,40.956587 109.565217,41.0870217 109.434783,41.2174565" id="Fill-13" fill="#171E25"></path>
                <path d="M127.108435,35.2173261 L127.108435,44.0868913 C127.108435,44.3477609 126.912783,44.6086304 126.586696,44.6086304 L122.869304,44.6086304 C122.609087,44.6086304 122.347565,44.4129783 122.347565,44.0868913 L122.347565,36.5216739 C122.347565,34.7608043 121.304739,33.7173261 119.73887,33.7173261 C117.978,33.7173261 116.934522,34.9564565 116.739522,36.7173261 L116.739522,43.5651522 C116.739522,43.8260217 116.54387,44.0868913 116.217783,44.0868913 C116.087348,44.0868913 116.021478,44.0216739 115.891696,44.0216739 L112.108435,41.2825435 C111.978652,41.2173261 111.912783,41.0216739 111.912783,40.8912391 L111.912783,30.2608043 C111.912783,29.9999348 112.108435,29.7390652 112.434522,29.7390652 L116.217783,29.7390652 C116.478,29.7390652 116.739522,29.9347174 116.739522,30.2608043 L116.739522,30.7173261 C116.739522,30.9781957 116.934522,31.2390652 117.260609,31.2390652 C117.391696,31.2390652 117.52213,31.1738478 117.586696,31.1086304 C118.696043,30.0651522 120.195391,29.543413 121.695391,29.543413 C124.956261,29.543413 127.108435,31.7608043 127.108435,35.2173261" id="Fill-15" fill="#171E25"></path>
                <path d="M141.782348,33.195587 L139.173652,34.7608043 C138.978,34.8912391 138.717783,34.8260217 138.521478,34.695587 C137.804087,33.9129783 136.825826,33.4564565 135.783,33.4564565 C133.956261,33.4564565 132.651913,34.9564565 132.651913,37.1738478 C132.651913,39.3912391 133.956261,40.9564565 135.783,40.9564565 C136.891043,41.0216739 137.935174,40.4999348 138.587348,39.6521087 C138.717783,39.4564565 139.04387,39.3912391 139.239522,39.5216739 L141.848217,41.0868913 C142.108435,41.2173261 142.174304,41.543413 142.043217,41.7390652 C140.73887,43.6303696 138.456261,44.7390652 135.586696,44.7390652 C131.021478,44.7390652 127.956913,41.7390652 127.956913,37.1738478 C127.956913,32.6086304 131.087348,29.543413 135.652565,29.543413 C138.391696,29.543413 140.608435,30.5868913 141.978652,32.4129783 C142.043217,32.7390652 141.978652,32.9999348 141.782348,33.195587" id="Fill-17" fill="#171E25"></path>
                <path d="M151.695522,35.8695 C151.956391,35.8695 152.217261,35.6738478 152.217261,35.3477609 L152.217261,35.2825435 C152.087478,33.8477609 150.847696,32.8042826 149.412913,32.8695 C147.97813,32.8695 146.804217,33.8477609 146.47813,35.2173261 C146.412913,35.4781957 146.544,35.7390652 146.804217,35.8695 L146.934652,35.8695 L151.695522,35.8695 Z M156.326609,38.4781957 L147.065087,38.4781957 C146.804217,38.4781957 146.544,38.6738478 146.544,38.9347174 C146.544,38.9999348 146.544,39.0651522 146.608565,39.1303696 C147.130304,40.4347174 148.434652,41.2825435 149.869435,41.2173261 C151.043348,41.2173261 152.152043,40.7608043 153.065739,40.043413 C153.260739,39.8477609 153.521609,39.8477609 153.717913,40.043413 L155.543348,41.8695 C155.739,42.0651522 155.739,42.3912391 155.543348,42.5868913 C153.847696,44.0868913 151.695522,44.9347174 149.412913,44.8695 C145.108565,44.8695 142.239,42.4564565 141.652696,38.7390652 C140.739,32.9347174 145.108565,28.9564565 150.847696,29.8042826 C154.891174,30.4564565 156.912913,33.5216739 156.782478,38.0868913 C156.782478,38.2173261 156.586826,38.4781957 156.326609,38.4781957 L156.326609,38.4781957 Z" id="Fill-19" fill="#171E25"></path>
                <path d="M11.2826087,10.7608043 C24.9782609,7.23906522 48.1956522,4.69558696 56.8043478,24.195587 C56.9347826,24.4564565 57.1956522,24.5868913 57.4565217,24.4564565 C57.5869565,24.3912391 57.7173913,24.2608043 57.7173913,24.1303696 C58.3695652,21.6521087 60.9782609,17.2173261 70.6304348,13.695587 C70.8913043,13.5651522 71.1521739,13.695587 71.2826087,13.9564565 C71.4130435,14.2173261 71.2826087,14.4781957 71.0217391,14.6086304 C66.4565217,17.2173261 60.0652174,21.6521087 57.8478261,26.9999348 C57.8478261,26.9999348 57.7173913,27.6521087 57.3913043,27.0651522 C57.3913043,27.0651522 46.9565217,5.8695 11.4782609,11.6738478 C11.2173913,11.6738478 11.0217391,11.4129783 11.0217391,11.1521087 C11.0217391,11.0216739 11.1521739,10.8912391 11.2826087,10.7608043" id="Fill-21" fill="#FBDD46"></path>
                <g id="Group-25" transform="translate(77.608696, 0.525261)" fill="#171E25">
                    <path d="M18.0654783,3.12691304 L12.5872174,8.7356087 C12.4561304,8.86604348 12.2611304,8.93126087 12.0654783,8.86604348 L4.82569565,5.86604348 C4.56547826,5.7356087 4.43504348,5.47473913 4.56547826,5.21386957 C4.63004348,5.08343478 4.76113043,4.953 4.95613043,4.88778261 L17.6089565,2.27908696 C17.8691739,2.21386957 18.1306957,2.34430435 18.1952609,2.60517391 C18.2611304,2.80082609 18.1952609,2.99647826 18.0654783,3.12691304 M4.10895652,16.3008261 L2.15243478,6.77908696 C2.08721739,6.51821739 2.28286957,6.25734783 2.54308696,6.19213043 L2.8046087,6.19213043 L12.195913,10.1051739 C12.3915652,10.1703913 12.5872174,10.1703913 12.7176522,9.97473913 L19.8915652,2.7356087 C20.0872174,2.53995652 20.4133043,2.53995652 20.6083043,2.7356087 C20.6741739,2.80082609 20.7393913,2.86604348 20.7393913,2.99647826 L22.2387391,9.97473913 L21.3915652,0.583434783 C21.3915652,0.322565217 21.1300435,0.126913043 20.8698261,0.126913043 L20.8039565,0.126913043 L1.04308696,4.1703913 C0.782869565,4.2356087 0.587217391,4.49647826 0.652434783,4.75734783 L3.26113043,17.5399565 C3.32569565,17.8008261 3.58721739,17.9964783 3.84743478,17.9312609 L22.4343913,14.1486522 L4.69591304,16.6921304 C4.43504348,16.6921304 4.17352174,16.5616957 4.10895652,16.3008261" id="Fill-23"></path>
                </g>
            </g>
        </g>
    </g>
</svg>